<svg width="24" height="24" viewBox="0 0 24 24" fill="none" xmlns="http://www.w3.org/2000/svg">
<path d="M10 12.7H14M3.3 7.59999H20.7M3.6 7.09999L4.9 5.34999L6.2 3.59999C6.28376 3.41634 6.41797 3.26028 6.587 3.14999C6.77321 3.04345 6.98564 2.99147 7.2 2.99999H16.9C17.0998 3.00092 17.2966 3.04815 17.475 3.13799C17.6456 3.21983 17.7921 3.34456 17.9 3.49999L19.2 5.24999L20.5 6.99999C20.592 7.09653 20.653 7.21845 20.675 7.34999C20.6949 7.46554 20.7033 7.58278 20.7 7.69999V21H3.3V7.79999C3.297 7.6671 3.32258 7.53513 3.375 7.41299C3.42976 7.2955 3.50608 7.18932 3.6 7.09999Z" stroke="#A3A3A3" stroke-width="2" stroke-linecap="round" stroke-linejoin="round"/>
</svg>
