<svg width="24" height="24" viewBox="0 0 24 24" fill="none" xmlns="http://www.w3.org/2000/svg">
<path d="M12.1 3.79999C12.4083 3.54445 12.7594 3.34539 13.137 3.21199C13.5429 3.07012 13.97 2.99843 14.4 2.99999C15.3283 2.99999 16.2185 3.36874 16.8749 4.02512C17.5313 4.6815 17.9 5.57174 17.9 6.49999C17.9 7.42825 17.5313 8.31849 16.8749 8.97487C16.2185 9.63125 15.3283 9.99999 14.4 9.99999C13.9699 10.0017 13.5427 9.92969 13.137 9.78699C12.7593 9.65432 12.4082 9.45557 12.1 9.19999M16.2 21H21C21.0223 18.9479 20.3333 16.9515 19.05 15.35C18.4978 14.6379 17.794 14.0576 16.9898 13.6511C16.1855 13.2446 15.3009 13.0222 14.4 13C14.052 12.9975 13.7046 13.0269 13.362 13.088C13.0282 13.1462 12.7044 13.2512 12.4 13.4M16.2 21C16.2223 18.9479 15.5333 16.9515 14.25 15.35C13.6978 14.6379 12.994 14.0576 12.1898 13.6511C11.3855 13.2446 10.5009 13.0222 9.6 13C8.69913 13.0222 7.8145 13.2446 7.01024 13.6511C6.20597 14.0576 5.50222 14.6379 4.95 15.35C3.66673 16.9515 2.97769 18.9479 3 21H16.2ZM9.6 2.99999C10.4097 3.00005 11.1944 3.28087 11.8203 3.79461C12.4462 4.30835 12.8746 5.02322 13.0325 5.81741C13.1905 6.6116 13.0681 7.43598 12.6864 8.15008C12.3046 8.86418 11.6871 9.42383 10.9389 9.73366C10.1908 10.0435 9.35841 10.0843 8.58355 9.84923C7.80869 9.61413 7.13932 9.11763 6.68949 8.44433C6.23966 7.77103 6.03721 6.96258 6.11662 6.15675C6.19603 5.35091 6.5524 4.59754 7.125 4.02499C7.4498 3.69969 7.83562 3.44169 8.26033 3.2658C8.68505 3.08991 9.1403 2.99958 9.6 2.99999Z" stroke="#A3A3A3" stroke-width="2" stroke-linecap="round" stroke-linejoin="round"/>
</svg>
