<svg width="24" height="24" viewBox="0 0 24 24" fill="none" xmlns="http://www.w3.org/2000/svg">
<path d="M12 3.00001L11.9987 4.00001H12L12 3.00001ZM5.636 5.63601L6.3431 6.34312L6.34402 6.3422L5.636 5.63601ZM9 14C8.44772 14 8 14.4477 8 15C8 15.5523 8.44772 16 9 16V14ZM12 16C12.5523 16 13 15.5523 13 15C13 14.4477 12.5523 14 12 14V16ZM10.012 7.84401L9.02421 7.68822L9.02393 7.69002L10.012 7.84401ZM10.844 7.01201L10.9998 7.9998L11 7.99977L10.844 7.01201ZM13.5 7.00001V6.00001V7.00001ZM9 17C9 17.5523 9.44772 18 10 18C10.5523 18 11 17.5523 11 17H9ZM9 11C8.44772 11 8 11.4477 8 12C8 12.5523 8.44772 13 9 13V11ZM12 4.00001C13.8508 4.00002 15.6444 4.64179 17.0751 5.81597L18.3439 4.26996C16.5555 2.80224 14.3136 2.00003 12 2.00001L12 4.00001ZM17.0751 5.81597C18.5058 6.99014 19.4851 8.62407 19.8462 10.4393L21.8078 10.0492C21.3565 7.78008 20.1323 5.73767 18.3439 4.26996L17.0751 5.81597ZM19.8462 10.4393C20.2073 12.2546 19.9278 14.1389 19.0553 15.7712L20.8191 16.714C21.9097 14.6737 22.2591 12.3183 21.8078 10.0492L19.8462 10.4393ZM19.0553 15.7712C18.1828 17.4035 16.7713 18.6828 15.0613 19.3911L15.8267 21.2388C17.9641 20.3535 19.7285 18.7544 20.8191 16.714L19.0553 15.7712ZM15.0613 19.3911C13.3514 20.0993 11.4487 20.1928 9.67759 19.6555L9.09701 21.5694C11.3109 22.241 13.6892 22.1242 15.8267 21.2388L15.0613 19.3911ZM9.67759 19.6555C7.90645 19.1182 6.3764 17.9834 5.34814 16.4445L3.68519 17.5557C4.97052 19.4793 6.88308 20.8978 9.09701 21.5694L9.67759 19.6555ZM5.34814 16.4445C4.31987 14.9056 3.85702 13.0577 4.03845 11.2158L2.04808 11.0198C1.8213 13.3222 2.39986 15.632 3.68519 17.5557L5.34814 16.4445ZM4.03845 11.2158C4.21988 9.37389 5.03435 7.65185 6.3431 6.34312L4.9289 4.9289C3.29296 6.56481 2.27486 8.71736 2.04808 11.0198L4.03845 11.2158ZM6.34402 6.3422C7.08578 5.59852 7.96721 5.00876 8.93762 4.60681L8.17227 2.75905C6.95839 3.26184 5.85585 3.99956 4.92798 4.92981L6.34402 6.3422ZM8.93762 4.60681C9.90804 4.20486 10.9483 3.99864 11.9987 4.00001L12.0013 2.00001C10.6874 1.9983 9.38615 2.25625 8.17227 2.75905L8.93762 4.60681ZM9 16H12V14H9V16ZM11 12V8.20001H9V12H11ZM11 8.20001C11 8.1017 11.0001 8.04751 11.0011 8.00785C11.0021 7.9709 11.0035 7.97623 11.0001 7.99799L9.02393 7.69002C8.99698 7.86296 9 8.05214 9 8.20001H11ZM10.9998 7.9998L9.58558 6.58558C9.28661 6.88455 9.09008 7.27057 9.02421 7.68822L10.9998 7.9998ZM10.9998 7.9998L10.6882 6.02422C10.2706 6.09009 9.88454 6.28662 9.58558 6.58558L10.9998 7.9998ZM11 7.99977C10.9762 8.00352 10.9697 8.00216 11.0074 8.00115C11.0472 8.00009 11.1017 8.00001 11.2 8.00001V6.00001C11.0535 6.00001 10.8614 5.99688 10.688 6.02424L11 7.99977ZM11.2 8.00001H13.5V6.00001H11.2V8.00001ZM13.5 8.00001C13.8978 8.00001 14.2794 8.15804 14.5607 8.43935L15.9749 7.02513C15.3185 6.36876 14.4283 6.00001 13.5 6.00001V8.00001ZM14.5607 8.43935C14.842 8.72065 15 9.10218 15 9.50001H17C17 8.57175 16.6313 7.68151 15.9749 7.02513L14.5607 8.43935ZM15 9.50001C15 9.89783 14.842 10.2794 14.5607 10.5607L15.9749 11.9749C16.6313 11.3185 17 10.4283 17 9.50001H15ZM14.5607 10.5607C14.2794 10.842 13.8978 11 13.5 11V13C14.4283 13 15.3185 12.6313 15.9749 11.9749L14.5607 10.5607ZM13.5 11H10V13H13.5V11ZM9 12V17H11V12H9ZM10 11H9V13H10V11Z" fill="#A3A3A3"/>
</svg>
