<svg width="194" height="72" viewBox="0 0 194 72" fill="none" xmlns="http://www.w3.org/2000/svg">
<rect width="72" height="72" rx="15.265" fill="#006BFF"/>
<path fill-rule="evenodd" clip-rule="evenodd" d="M48.1444 29.7585C47.7724 26.9586 47.5863 25.5586 46.9791 24.4731C46.2492 23.1681 45.0919 22.1544 43.7021 21.6027C42.546 21.1438 41.1337 21.1438 38.3092 21.1438H24.6904C17.6728 21.1438 14.164 21.1438 12.2178 23.4014C10.2717 25.6591 10.7888 29.1296 11.8231 36.0706L12.3766 39.7847C13.165 45.0756 13.5592 47.721 15.3896 49.2988C17.22 50.8767 19.8947 50.8767 25.2439 50.8767H48.1372C49.6272 50.8767 50.7764 49.5647 50.5801 48.0877C50.4174 46.8629 49.3728 45.948 48.1372 45.948H20.4513C19.0814 45.948 17.9708 44.8374 17.9708 43.4675C17.9708 42.0976 19.0814 40.9871 20.4513 40.9871H38.3092C41.8963 40.9871 43.6898 40.9871 45.0237 40.3472C46.6258 39.5787 47.8438 38.1881 48.3946 36.4987C48.8532 35.0921 48.6169 33.3142 48.1444 29.7585Z" fill="white"/>
<path fill-rule="evenodd" clip-rule="evenodd" d="M48.1444 29.7585C47.7724 26.9586 47.5863 25.5586 46.9791 24.4731C46.2492 23.1681 45.0919 22.1544 43.7021 21.6027C42.546 21.1438 41.1337 21.1438 38.3092 21.1438H24.6904C17.6728 21.1438 14.164 21.1438 12.2178 23.4014C10.2717 25.6591 10.7888 29.1296 11.8231 36.0706L12.3766 39.7847C13.165 45.0756 13.5592 47.721 15.3896 49.2988C17.22 50.8767 19.8947 50.8767 25.2439 50.8767H48.1372C49.6272 50.8767 50.7764 49.5647 50.5801 48.0877C50.4174 46.8629 49.3728 45.948 48.1372 45.948H20.4513C19.0814 45.948 17.9708 44.8374 17.9708 43.4675C17.9708 42.0976 19.0814 40.9871 20.4513 40.9871H38.3092C41.8963 40.9871 43.6898 40.9871 45.0237 40.3472C46.6258 39.5787 47.8438 38.1881 48.3946 36.4987C48.8532 35.0921 48.6169 33.3142 48.1444 29.7585Z" fill="url(#paint0_linear_42_776)" fill-opacity="0.3"/>
<path d="M54.7547 21.1438C55.9809 21.1438 57.0193 22.0479 57.1881 23.2623L60.631 48.03C60.8363 49.5072 59.6889 50.8251 58.1976 50.8251C56.9714 50.8251 55.933 49.921 55.7642 48.7065L52.3213 23.9389C52.116 22.4617 53.2634 21.1438 54.7547 21.1438Z" fill="white"/>
<path d="M54.7547 21.1438C55.9809 21.1438 57.0193 22.0479 57.1881 23.2623L60.631 48.03C60.8363 49.5072 59.6889 50.8251 58.1976 50.8251C56.9714 50.8251 55.933 49.921 55.7642 48.7065L52.3213 23.9389C52.116 22.4617 53.2634 21.1438 54.7547 21.1438Z" fill="url(#paint1_linear_42_776)" fill-opacity="0.3"/>
<g filter="url(#filter0_d_42_776)">
<path fill-rule="evenodd" clip-rule="evenodd" d="M16.5627 21.4243C14.5593 21.706 13.1926 22.2704 12.2178 23.4012C10.2717 25.6588 10.7888 29.1293 11.8231 36.0703L12.3766 39.7845C13.165 45.0753 13.5592 47.7207 15.3896 49.2986C17.22 50.8765 19.8947 50.8765 25.2439 50.8765H38.5134C35.8588 49.4956 33.3699 47.8402 31.0843 45.9477H20.4513C19.0814 45.9477 17.9708 44.8372 17.9708 43.4673C17.9708 42.0974 19.0814 40.9869 20.4513 40.9869H26.023C21.3024 35.5131 17.9674 28.8106 16.5627 21.4243Z" fill="white" fill-opacity="0.2" shape-rendering="crispEdges"/>
</g>
<path d="M106.912 44.672C101.888 44.672 97.712 43.008 94.384 39.68C91.088 36.32 89.44 32.16 89.44 27.2C89.44 22.24 91.088 18.096 94.384 14.768C97.712 11.408 101.888 9.728 106.912 9.728C109.92 9.728 112.704 10.432 115.264 11.84C117.824 13.216 119.84 15.104 121.312 17.504L114.688 21.344C113.952 20.032 112.896 19.024 111.52 18.32C110.144 17.584 108.608 17.216 106.912 17.216C103.936 17.216 101.552 18.128 99.76 19.952C98 21.776 97.12 24.192 97.12 27.2C97.12 30.208 98 32.624 99.76 34.448C101.552 36.272 103.936 37.184 106.912 37.184C108.608 37.184 110.144 36.816 111.52 36.08C112.928 35.344 113.984 34.336 114.688 33.056L121.312 36.896C119.872 39.296 117.872 41.2 115.312 42.608C112.752 43.984 109.952 44.672 106.912 44.672ZM137.871 22.88C141.327 22.88 144.111 23.856 146.223 25.808C148.335 27.728 149.391 30.272 149.391 33.44C149.391 36.608 148.335 39.168 146.223 41.12C144.111 43.04 141.327 44 137.871 44H124.911V10.4H146.511V17.792H132.591V22.88H137.871ZM137.871 36.8C140.431 36.8 141.711 35.68 141.711 33.44C141.711 31.2 140.431 30.08 137.871 30.08H132.591V36.8H137.871ZM150.697 44V38.432L161.977 26.72C164.249 24.384 165.385 22.4 165.385 20.768C165.385 19.712 165.065 18.864 164.425 18.224C163.785 17.552 162.905 17.216 161.785 17.216C159.545 17.216 157.897 18.432 156.841 20.864L150.361 17.072C151.385 14.672 152.921 12.848 154.969 11.6C157.017 10.352 159.257 9.728 161.689 9.728C164.825 9.728 167.497 10.704 169.705 12.656C171.945 14.576 173.065 17.168 173.065 20.432C173.065 23.984 171.321 27.504 167.833 30.992L162.265 36.608H173.545V44H150.697ZM183.561 10.4H190.281V44H182.601V18.512L176.649 20.144L174.777 13.568L183.561 10.4Z" fill="#222222"/>
<path d="M93.4346 63.1465C92.4971 63.1465 91.6572 62.9219 90.915 62.4727C90.1729 62.0234 89.5894 61.3813 89.1646 60.5464C88.7397 59.7065 88.5273 58.708 88.5273 57.5508C88.5273 56.3838 88.7397 55.3828 89.1646 54.5479C89.5942 53.708 90.1777 53.0635 90.915 52.6143C91.6572 52.165 92.4971 51.9404 93.4346 51.9404C94.0107 51.9404 94.5503 52.0234 95.0532 52.1895C95.561 52.3555 96.0151 52.5972 96.4155 52.9146C96.8159 53.2319 97.1455 53.6201 97.4043 54.0791C97.668 54.5381 97.8438 55.0581 97.9316 55.6392H96.2764C96.2129 55.2827 96.0933 54.9702 95.9175 54.7017C95.7466 54.4282 95.5342 54.1987 95.2803 54.0132C95.0312 53.8228 94.7505 53.6812 94.438 53.5884C94.1304 53.4907 93.8032 53.4419 93.4565 53.4419C92.8315 53.4419 92.2676 53.6006 91.7646 53.918C91.2666 54.2305 90.8735 54.6943 90.5854 55.3096C90.3022 55.9199 90.1606 56.667 90.1606 57.5508C90.1606 58.4395 90.3047 59.189 90.5928 59.7993C90.8809 60.4048 91.2739 60.8638 91.772 61.1763C92.27 61.4888 92.8291 61.645 93.4492 61.645C93.7959 61.645 94.123 61.5986 94.4307 61.5059C94.7383 61.4131 95.019 61.2739 95.2729 61.0884C95.5269 60.9028 95.7393 60.6782 95.9102 60.4146C96.0859 60.146 96.208 59.8359 96.2764 59.4844H97.9316C97.8486 60.0264 97.6802 60.522 97.4263 60.9712C97.1724 61.4155 96.8477 61.8013 96.4521 62.1284C96.0566 62.4507 95.605 62.7021 95.0972 62.8828C94.5894 63.0586 94.0352 63.1465 93.4346 63.1465ZM102.685 63.1685C101.884 63.1685 101.191 62.9951 100.605 62.6484C100.019 62.3018 99.5674 61.8135 99.25 61.1836C98.9375 60.5488 98.7812 59.8091 98.7812 58.9644C98.7812 58.1245 98.9351 57.3848 99.2427 56.7451C99.5552 56.1055 99.9922 55.6074 100.554 55.251C101.12 54.8896 101.784 54.709 102.546 54.709C103.01 54.709 103.459 54.7847 103.894 54.936C104.328 55.0874 104.719 55.3267 105.065 55.6538C105.412 55.981 105.686 56.4058 105.886 56.9282C106.091 57.4507 106.193 58.0806 106.193 58.8179V59.3892H99.6821V58.1953H105.373L104.633 58.5908C104.633 58.0879 104.555 57.6436 104.399 57.2578C104.243 56.8721 104.008 56.5718 103.696 56.3569C103.388 56.1372 103.005 56.0273 102.546 56.0273C102.087 56.0273 101.694 56.1372 101.367 56.3569C101.044 56.5767 100.798 56.8672 100.627 57.2285C100.456 57.5898 100.371 57.9854 100.371 58.415V59.228C100.371 59.7896 100.468 60.2656 100.664 60.6562C100.859 61.0469 101.13 61.3447 101.477 61.5498C101.828 61.7549 102.236 61.8574 102.7 61.8574C103.002 61.8574 103.276 61.8135 103.52 61.7256C103.769 61.6377 103.984 61.5059 104.165 61.3301C104.345 61.1543 104.482 60.937 104.575 60.6782L106.083 60.9639C105.961 61.4033 105.747 61.7891 105.439 62.1211C105.131 62.4531 104.743 62.7119 104.274 62.8975C103.811 63.0781 103.281 63.1685 102.685 63.1685ZM107.307 63V54.8115H108.889V58.2466H109.658L112.36 54.8115H114.323L111.167 58.8032L114.367 63H112.39L109.921 59.7261H108.889V63H107.307ZM114.968 66.0615V54.8115H116.506V56.1445H116.638C116.735 55.9736 116.87 55.7759 117.041 55.5513C117.216 55.3267 117.46 55.1313 117.773 54.9653C118.085 54.7944 118.493 54.709 118.996 54.709C119.655 54.709 120.241 54.875 120.754 55.207C121.271 55.5391 121.679 56.02 121.977 56.6499C122.275 57.2798 122.424 58.0391 122.424 58.9277C122.424 59.8066 122.277 60.5635 121.984 61.1982C121.691 61.8281 121.286 62.314 120.769 62.6558C120.256 62.9927 119.667 63.1611 119.003 63.1611C118.51 63.1611 118.105 63.0781 117.788 62.9121C117.475 62.7412 117.229 62.5435 117.048 62.3188C116.872 62.0942 116.735 61.8965 116.638 61.7256H116.55V66.0615H114.968ZM118.659 61.8062C119.133 61.8062 119.528 61.6792 119.846 61.4253C120.163 61.1714 120.402 60.8271 120.563 60.3926C120.729 59.9531 120.812 59.46 120.812 58.9131C120.812 58.3711 120.732 57.8853 120.571 57.4556C120.41 57.0259 120.17 56.6865 119.853 56.4375C119.536 56.1885 119.138 56.064 118.659 56.064C118.195 56.064 117.805 56.1836 117.487 56.4229C117.17 56.6572 116.928 56.9893 116.762 57.4189C116.601 57.8438 116.521 58.3418 116.521 58.9131C116.521 59.4844 116.604 59.9873 116.77 60.4219C116.936 60.8564 117.177 61.1958 117.495 61.4399C117.817 61.6841 118.205 61.8062 118.659 61.8062ZM127.104 63.1685C126.303 63.1685 125.61 62.9951 125.024 62.6484C124.438 62.3018 123.986 61.8135 123.669 61.1836C123.356 60.5488 123.2 59.8091 123.2 58.9644C123.2 58.1245 123.354 57.3848 123.662 56.7451C123.974 56.1055 124.411 55.6074 124.973 55.251C125.539 54.8896 126.203 54.709 126.965 54.709C127.429 54.709 127.878 54.7847 128.312 54.936C128.747 55.0874 129.138 55.3267 129.484 55.6538C129.831 55.981 130.104 56.4058 130.305 56.9282C130.51 57.4507 130.612 58.0806 130.612 58.8179V59.3892H124.101V58.1953H129.792L129.052 58.5908C129.052 58.0879 128.974 57.6436 128.818 57.2578C128.662 56.8721 128.427 56.5718 128.115 56.3569C127.807 56.1372 127.424 56.0273 126.965 56.0273C126.506 56.0273 126.113 56.1372 125.786 56.3569C125.463 56.5767 125.217 56.8672 125.046 57.2285C124.875 57.5898 124.79 57.9854 124.79 58.415V59.228C124.79 59.7896 124.887 60.2656 125.083 60.6562C125.278 61.0469 125.549 61.3447 125.896 61.5498C126.247 61.7549 126.655 61.8574 127.119 61.8574C127.421 61.8574 127.695 61.8135 127.939 61.7256C128.188 61.6377 128.403 61.5059 128.583 61.3301C128.764 61.1543 128.901 60.937 128.994 60.6782L130.502 60.9639C130.38 61.4033 130.166 61.7891 129.858 62.1211C129.55 62.4531 129.162 62.7119 128.693 62.8975C128.229 63.0781 127.7 63.1685 127.104 63.1685ZM131 56.1885V54.8115H137.893V56.1885H135.234V63H133.674V56.1885H131ZM140.954 63.1758C140.437 63.1758 139.968 63.0806 139.548 62.8901C139.128 62.6948 138.796 62.4116 138.552 62.0405C138.308 61.6694 138.186 61.2178 138.186 60.6855C138.186 60.2217 138.273 59.8433 138.449 59.5503C138.63 59.2524 138.872 59.0156 139.174 58.8398C139.477 58.6641 139.814 58.5322 140.185 58.4443C140.556 58.3564 140.937 58.2881 141.328 58.2393C141.821 58.1855 142.219 58.1392 142.521 58.1001C142.824 58.061 143.044 58 143.181 57.917C143.322 57.8291 143.393 57.6899 143.393 57.4995V57.4629C143.393 56.999 143.261 56.6401 142.998 56.3862C142.739 56.1323 142.353 56.0054 141.84 56.0054C141.308 56.0054 140.886 56.1226 140.573 56.3569C140.266 56.5864 140.053 56.8477 139.936 57.1406L138.435 56.7964C138.615 56.2983 138.876 55.8979 139.218 55.5952C139.565 55.2876 139.96 55.063 140.405 54.9214C140.854 54.7798 141.323 54.709 141.811 54.709C142.138 54.709 142.485 54.748 142.851 54.8262C143.217 54.8994 143.562 55.0386 143.884 55.2437C144.211 55.4438 144.477 55.7319 144.682 56.1079C144.887 56.4839 144.99 56.9697 144.99 57.5654V63H143.43V61.8794H143.371C143.273 62.0796 143.12 62.2798 142.91 62.48C142.705 62.6802 142.441 62.8462 142.119 62.978C141.796 63.1099 141.408 63.1758 140.954 63.1758ZM141.298 61.9014C141.743 61.9014 142.121 61.8159 142.434 61.645C142.746 61.4692 142.985 61.2397 143.151 60.9565C143.317 60.6733 143.4 60.373 143.4 60.0557V58.9937C143.342 59.0474 143.232 59.0986 143.071 59.1475C142.91 59.1963 142.727 59.2378 142.521 59.272C142.316 59.3062 142.116 59.3379 141.921 59.3672C141.726 59.3916 141.562 59.4111 141.43 59.4258C141.123 59.4697 140.842 59.5381 140.588 59.6309C140.334 59.7188 140.129 59.8506 139.973 60.0264C139.821 60.1973 139.746 60.4243 139.746 60.7075C139.746 61.103 139.892 61.4009 140.185 61.6011C140.478 61.8013 140.849 61.9014 141.298 61.9014ZM146.521 66.0615V54.8115H148.059V56.1445H148.19C148.288 55.9736 148.422 55.7759 148.593 55.5513C148.769 55.3267 149.013 55.1313 149.326 54.9653C149.638 54.7944 150.046 54.709 150.549 54.709C151.208 54.709 151.794 54.875 152.307 55.207C152.824 55.5391 153.232 56.02 153.53 56.6499C153.828 57.2798 153.977 58.0391 153.977 58.9277C153.977 59.8066 153.83 60.5635 153.537 61.1982C153.244 61.8281 152.839 62.314 152.321 62.6558C151.809 62.9927 151.22 63.1611 150.556 63.1611C150.063 63.1611 149.658 63.0781 149.34 62.9121C149.028 62.7412 148.781 62.5435 148.601 62.3188C148.425 62.0942 148.288 61.8965 148.19 61.7256H148.103V66.0615H146.521ZM150.212 61.8062C150.686 61.8062 151.081 61.6792 151.398 61.4253C151.716 61.1714 151.955 60.8271 152.116 60.3926C152.282 59.9531 152.365 59.46 152.365 58.9131C152.365 58.3711 152.285 57.8853 152.124 57.4556C151.962 57.0259 151.723 56.6865 151.406 56.4375C151.088 56.1885 150.69 56.064 150.212 56.064C149.748 56.064 149.357 56.1836 149.04 56.4229C148.723 56.6572 148.481 56.9893 148.315 57.4189C148.154 57.8438 148.073 58.3418 148.073 58.9131C148.073 59.4844 148.156 59.9873 148.322 60.4219C148.488 60.8564 148.73 61.1958 149.047 61.4399C149.37 61.6841 149.758 61.8062 150.212 61.8062ZM156.328 57.6387H158.708C159.704 57.6338 160.471 57.8804 161.008 58.3784C161.55 58.8765 161.823 59.5186 161.828 60.3047C161.828 60.8174 161.706 61.2764 161.462 61.6816C161.218 62.0869 160.864 62.4092 160.4 62.6484C159.936 62.8828 159.372 63 158.708 63H155.134V54.8115H156.679V61.623H158.708C159.162 61.623 159.536 61.5059 159.829 61.2715C160.122 61.0322 160.271 60.7246 160.275 60.3486C160.271 59.9531 160.122 59.6309 159.829 59.3818C159.536 59.1328 159.162 59.0107 158.708 59.0156H156.328V57.6387ZM166.428 63V52.0869H170.434C171.206 52.0869 171.845 52.2139 172.353 52.4678C172.861 52.7217 173.239 53.0659 173.488 53.5005C173.742 53.9302 173.869 54.4136 173.869 54.9507C173.869 55.4048 173.784 55.7881 173.613 56.1006C173.447 56.4131 173.225 56.6621 172.946 56.8477C172.668 57.0332 172.36 57.1699 172.023 57.2578V57.3604C172.39 57.3799 172.746 57.4971 173.093 57.7119C173.439 57.9268 173.725 58.2319 173.95 58.6274C174.179 59.0181 174.294 59.4966 174.294 60.063C174.294 60.6196 174.162 61.1201 173.898 61.5645C173.64 62.0039 173.239 62.353 172.697 62.6118C172.155 62.8706 171.459 63 170.61 63H166.428ZM168.076 61.5938H170.449C171.24 61.5938 171.806 61.4399 172.148 61.1323C172.49 60.8247 172.661 60.4414 172.661 59.9824C172.661 59.6357 172.573 59.3208 172.397 59.0376C172.226 58.7495 171.979 58.52 171.657 58.3491C171.335 58.1782 170.954 58.0928 170.515 58.0928H168.076V61.5938ZM168.076 56.811H170.288C170.654 56.811 170.986 56.7402 171.284 56.5986C171.582 56.457 171.816 56.2568 171.987 55.998C172.163 55.7344 172.25 55.4292 172.25 55.0825C172.25 54.6333 172.092 54.2573 171.774 53.9546C171.462 53.647 170.981 53.4932 170.332 53.4932H168.076V56.811ZM182.087 63L178.154 58.1074H177.26V63H175.612V52.0869H177.26V56.6938H178.146L181.926 52.0869H183.925L179.567 57.3896L184.101 63H182.087ZM191.477 63L187.543 58.1074H186.65V63H185.002V52.0869H186.65V56.6938H187.536L191.315 52.0869H193.315L188.957 57.3896L193.491 63H191.477Z" fill="#006BFF"/>
<defs>
<filter id="filter0_d_42_776" x="4.67594" y="14.1544" width="42.1509" height="43.992" filterUnits="userSpaceOnUse" color-interpolation-filters="sRGB">
<feFlood flood-opacity="0" result="BackgroundImageFix"/>
<feColorMatrix in="SourceAlpha" type="matrix" values="0 0 0 0 0 0 0 0 0 0 0 0 0 0 0 0 0 0 127 0" result="hardAlpha"/>
<feOffset dx="1.04353"/>
<feGaussianBlur stdDeviation="3.63497"/>
<feComposite in2="hardAlpha" operator="out"/>
<feColorMatrix type="matrix" values="0 0 0 0 0 0 0 0 0 0 0 0 0 0 0 0 0 0 0.05 0"/>
<feBlend mode="normal" in2="BackgroundImageFix" result="effect1_dropShadow_42_776"/>
<feBlend mode="normal" in="SourceGraphic" in2="effect1_dropShadow_42_776" result="shape"/>
</filter>
<linearGradient id="paint0_linear_42_776" x1="30.7522" y1="21.1438" x2="30.7522" y2="50.8767" gradientUnits="userSpaceOnUse">
<stop stop-color="#5866B0"/>
<stop offset="1" stop-color="#E7ECF3"/>
</linearGradient>
<linearGradient id="paint1_linear_42_776" x1="61.0195" y1="35.9844" x2="51.9328" y2="35.9844" gradientUnits="userSpaceOnUse">
<stop stop-color="#5866B0"/>
<stop offset="1" stop-color="#E7ECF3"/>
</linearGradient>
</defs>
</svg>
